<?xml version="1.0" standalone="no"?>
<!DOCTYPE svg PUBLIC "-//W3C//DTD SVG 20010904//EN"
 "http://www.w3.org/TR/2001/REC-SVG-20010904/DTD/svg10.dtd">
<svg version="1.0" xmlns="http://www.w3.org/2000/svg"
 width="1341.000000pt" height="1341.000000pt" viewBox="0 0 1341.000000 1341.000000"
 preserveAspectRatio="xMidYMid meet">
<metadata>
Created by potrace 1.11, written by Peter Selinger 2001-2013
</metadata>
<g transform="translate(0.000000,1341.000000) scale(0.100000,-0.100000)"
fill="#000000" stroke="none">
<path d="M6388 13065 c-2 -1 -34 -5 -73 -9 -77 -7 -285 -48 -364 -72 -28 -8
-54 -15 -58 -15 -5 -1 -16 -5 -26 -11 -10 -5 -27 -11 -37 -13 -11 -2 -34 -10
-52 -18 -18 -8 -58 -25 -88 -37 -61 -25 -269 -130 -315 -160 -16 -11 -37 -23
-45 -27 -8 -3 -25 -14 -36 -22 -12 -9 -32 -23 -44 -31 -198 -133 -412 -324
-560 -500 -30 -36 -57 -67 -60 -70 -20 -20 -86 -110 -137 -185 -110 -165 -162
-259 -258 -470 -26 -56 -103 -287 -111 -334 -3 -12 -11 -51 -19 -85 -7 -33
-17 -81 -20 -106 -3 -25 -8 -58 -11 -74 -17 -101 -20 -902 -9 -2118 l6 -757
-38 -10 c-21 -6 -41 -11 -45 -11 -4 0 -26 -7 -49 -15 -23 -9 -51 -17 -63 -20
-12 -2 -66 -18 -121 -35 -55 -18 -137 -42 -181 -55 -45 -13 -92 -29 -105 -36
-13 -7 -24 -11 -24 -10 0 2 -20 -3 -45 -10 -25 -7 -49 -13 -55 -15 -29 -7
-572 -187 -580 -192 -5 -4 -14 -7 -20 -8 -19 -4 -100 -32 -260 -89 -88 -31
-178 -63 -200 -70 -22 -7 -71 -25 -110 -40 -38 -15 -74 -28 -80 -30 -5 -1 -21
-7 -35 -12 -14 -6 -72 -27 -130 -48 -58 -21 -109 -42 -115 -46 -5 -5 -15 -9
-22 -9 -12 0 -333 -122 -410 -156 -17 -8 -34 -14 -38 -14 -4 0 -21 -7 -38 -15
-18 -7 -84 -35 -147 -60 -63 -26 -128 -53 -145 -60 -16 -7 -57 -23 -90 -36
-33 -13 -63 -28 -66 -32 -3 -5 -10 -9 -15 -9 -17 -1 -242 -93 -362 -149 -35
-16 -65 -29 -69 -29 -3 0 -39 -16 -80 -35 -41 -19 -76 -35 -78 -35 -3 0 -104
-46 -192 -87 l-33 -15 -1 -157 c0 -216 -5 -479 -15 -791 -10 -340 -11 -1191
-1 -1385 17 -326 18 -337 42 -430 57 -220 243 -403 535 -527 84 -36 193 -75
280 -99 25 -7 50 -14 55 -15 19 -6 100 -26 120 -30 35 -7 58 -12 130 -28 61
-13 241 -43 360 -60 22 -3 54 -8 70 -10 63 -10 122 -17 172 -21 29 -3 68 -7
85 -11 18 -3 60 -7 93 -10 33 -2 74 -6 90 -8 17 -3 66 -8 110 -11 44 -4 94 -8
110 -10 51 -5 176 -16 345 -30 41 -4 98 -8 125 -11 28 -2 79 -6 115 -9 65 -6
100 -9 220 -21 36 -3 85 -8 110 -10 85 -6 255 -22 255 -24 0 -1 31 -3 70 -6
38 -2 81 -7 95 -10 14 -2 45 -7 70 -9 25 -2 61 -6 80 -9 19 -2 62 -7 95 -11
33 -4 72 -8 88 -11 55 -8 83 -12 132 -19 28 -3 64 -9 80 -11 17 -3 41 -7 55
-9 75 -11 107 -16 130 -21 14 -3 36 -7 50 -9 44 -6 300 -56 355 -69 6 -2 24
-6 40 -10 256 -62 545 -149 650 -196 11 -5 49 -21 85 -35 104 -43 243 -110
315 -154 37 -23 69 -41 72 -41 5 0 143 -94 177 -120 129 -101 299 -270 343
-343 10 -15 21 -27 25 -27 4 0 8 -4 8 -9 0 -5 16 -33 36 -62 45 -68 109 -193
144 -284 l27 -70 82 -3 81 -3 21 48 c44 104 51 119 60 133 5 8 13 25 19 38 5
12 26 47 45 77 19 31 35 59 35 64 0 5 3 11 8 13 4 2 33 37 64 79 204 269 544
507 963 672 122 48 369 132 377 127 2 -1 17 4 33 10 17 7 37 13 45 15 9 2 72
17 140 34 141 35 163 40 205 47 17 2 50 9 75 15 25 5 56 12 70 14 14 3 36 7
50 10 14 2 41 7 60 10 19 3 46 7 60 10 14 3 41 7 60 10 19 3 46 7 60 10 23 4
72 11 140 21 14 2 48 6 75 9 28 3 64 8 80 11 17 3 46 7 65 9 19 2 60 6 90 10
82 10 109 13 175 19 33 4 78 8 100 11 22 2 67 7 100 10 33 3 80 7 105 10 25 2
74 7 110 10 62 5 145 13 220 20 19 2 79 6 132 10 53 3 107 8 120 10 13 2 64 6
113 10 104 7 170 12 240 19 28 3 79 8 115 11 135 12 174 15 315 31 28 3 64 7
80 9 17 2 55 7 86 10 31 3 66 7 76 9 11 3 44 7 74 11 29 4 76 11 104 16 27 5
68 11 90 13 22 3 51 8 65 10 13 3 42 8 64 12 22 3 44 7 47 10 4 2 23 6 43 9
19 4 79 17 133 31 54 13 108 27 120 29 87 20 319 111 412 162 206 115 347 271
402 448 37 116 43 257 43 895 -1 450 -4 617 -19 1080 -6 183 -18 724 -18 801
l0 67 -41 20 c-22 11 -99 46 -171 77 -71 31 -149 65 -172 76 -24 10 -45 19
-48 19 -3 0 -27 9 -53 21 -26 12 -56 25 -67 30 -11 4 -50 21 -87 38 -38 16
-68 28 -68 25 0 -3 -12 1 -27 10 -40 21 -80 37 -243 101 -80 31 -179 70 -220
87 -41 17 -79 31 -85 33 -5 1 -23 8 -40 15 -31 12 -66 26 -335 125 -85 31
-168 62 -185 68 -16 7 -32 12 -35 13 -3 0 -12 4 -20 7 -32 14 -276 98 -295
102 -11 3 -29 9 -40 14 -21 10 -465 161 -487 165 -7 2 -20 6 -28 9 -19 9 -230
77 -250 82 -8 2 -35 10 -60 18 -25 8 -92 29 -150 47 -58 18 -116 36 -130 41
-31 11 -238 73 -350 105 -47 14 -92 27 -100 31 -8 3 -24 8 -34 10 -11 2 -38
10 -60 17 -23 8 -61 19 -86 26 -57 16 -59 16 -98 25 l-34 8 6 71 c3 39 7 80
10 91 2 11 7 54 10 96 4 42 9 87 11 100 4 24 11 80 20 174 3 28 7 64 10 80 2
17 7 59 10 95 4 35 9 68 12 73 2 4 -9 20 -26 36 l-30 28 195 -1 c166 -1 194 1
195 14 1 21 1 1402 0 1418 -1 9 -50 12 -211 12 l-210 0 -1 123 c-2 304 -42
598 -119 872 -78 278 -184 513 -339 750 -25 39 -54 82 -66 96 -11 14 -31 40
-45 59 -84 113 -265 291 -399 394 -205 157 -454 291 -681 366 -36 12 -74 25
-85 30 -11 5 -31 11 -45 14 -14 4 -68 17 -120 31 -52 13 -106 26 -120 29 -14
2 -41 7 -60 10 -19 3 -48 8 -65 11 -51 10 -170 25 -245 32 -46 4 -488 12 -492
8z m1499 -4271 c-3 -3 -12 -4 -19 -1 -8 3 -5 6 6 6 11 1 17 -2 13 -5z m43 2
c0 -11 -19 -15 -25 -6 -3 5 1 10 9 10 9 0 16 -2 16 -4z m70 0 c0 -2 -7 -6 -15
-10 -8 -3 -15 -1 -15 4 0 6 7 10 15 10 8 0 15 -2 15 -4z m40 0 c0 -11 -19 -15
-25 -6 -3 5 1 10 9 10 9 0 16 -2 16 -4z m40 0 c0 -11 -19 -15 -25 -6 -3 5 1
10 9 10 9 0 16 -2 16 -4z m40 0 c0 -11 -19 -15 -25 -6 -3 5 1 10 9 10 9 0 16
-2 16 -4z m50 0 c0 -9 -30 -14 -35 -6 -4 6 3 10 14 10 12 0 21 -2 21 -4z m51
-5 c-8 -5 -20 -7 -28 -4 -21 8 -15 13 15 13 20 0 23 -3 13 -9z m69 5 c0 -11
-19 -15 -25 -6 -3 5 1 10 9 10 9 0 16 -2 16 -4z m51 -5 c-8 -5 -20 -7 -28 -4
-21 8 -15 13 15 13 20 0 23 -3 13 -9z m69 5 c0 -11 -19 -15 -25 -6 -3 5 1 10
9 10 9 0 16 -2 16 -4z m70 0 c0 -2 -7 -6 -15 -10 -8 -3 -15 -1 -15 4 0 6 7 10
15 10 8 0 15 -2 15 -4z m40 0 c0 -11 -19 -15 -25 -6 -3 5 1 10 9 10 9 0 16 -2
16 -4z m40 0 c0 -11 -19 -15 -25 -6 -3 5 1 10 9 10 9 0 16 -2 16 -4z m40 0 c0
-11 -19 -15 -25 -6 -3 5 1 10 9 10 9 0 16 -2 16 -4z m50 0 c0 -9 -30 -14 -35
-6 -4 6 3 10 14 10 12 0 21 -2 21 -4z m51 -5 c-8 -5 -20 -7 -28 -4 -21 8 -15
13 15 13 20 0 23 -3 13 -9z m69 5 c0 -11 -19 -15 -25 -6 -3 5 1 10 9 10 9 0
16 -2 16 -4z m51 -5 c-8 -5 -20 -7 -28 -4 -21 8 -15 13 15 13 20 0 23 -3 13
-9z m69 5 c0 -11 -19 -15 -25 -6 -3 5 1 10 9 10 9 0 16 -2 16 -4z m80 0 c0 -8
-49 -13 -60 -6 -6 4 5 7 25 8 19 1 35 0 35 -2z m40 0 c0 -11 -19 -15 -25 -6
-3 5 1 10 9 10 9 0 16 -2 16 -4z m120 0 c0 -2 -18 -6 -40 -8 -22 -2 -40 0 -40
4 0 5 18 8 40 8 22 0 40 -2 40 -4z m40 0 c0 -11 -19 -15 -25 -6 -3 5 1 10 9
10 9 0 16 -2 16 -4z m60 -5 c0 -4 -11 -6 -25 -3 -14 2 -25 6 -25 8 0 2 11 4
25 4 14 0 25 -4 25 -9z m57 3 c-3 -3 -12 -4 -19 -1 -8 3 -5 6 6 6 11 1 17 -2
13 -5z"/>
</g>
</svg>
